<?xml version="1.0" standalone="no"?><!DOCTYPE svg PUBLIC "-//W3C//DTD SVG 1.1//EN" "http://www.w3.org/Graphics/SVG/1.1/DTD/svg11.dtd"><svg t="1660901764575" class="icon" viewBox="0 0 1024 1024" version="1.1" xmlns="http://www.w3.org/2000/svg" p-id="3263" xmlns:xlink="http://www.w3.org/1999/xlink" width="200" height="200"><defs><style type="text/css">@font-face { font-family: feedback-iconfont; src: url("//at.alicdn.com/t/font_1031158_u69w8yhxdu.woff2?t=1630033759944") format("woff2"), url("//at.alicdn.com/t/font_1031158_u69w8yhxdu.woff?t=1630033759944") format("woff"), url("//at.alicdn.com/t/font_1031158_u69w8yhxdu.ttf?t=1630033759944") format("truetype"); }
</style></defs><path d="M512 128C300.8 128 128 300.8 128 512s172.8 384 384 384 384-172.8 384-384S723.2 128 512 128z m0 85.333333c66.133333 0 128 23.466667 179.2 59.733334L273.066667 691.2C236.8 640 213.333333 578.133333 213.333333 512c0-164.266667 134.4-298.666667 298.666667-298.666667z m0 597.333334c-66.133333 0-128-23.466667-179.2-59.733334l418.133333-418.133333C787.2 384 810.666667 445.866667 810.666667 512c0 164.266667-134.4 298.666667-298.666667 298.666667z" fill="#D50000" p-id="3264"></path></svg>